<svg width="1600" height="900" viewBox="0 0 1600 900" fill="none" xmlns="http://www.w3.org/2000/svg">
  <defs>
    <linearGradient id="bg" x1="0" y1="0" x2="1600" y2="900" gradientUnits="userSpaceOnUse">
      <stop stop-color="#0A2E45"/>
      <stop offset="1" stop-color="#0E5A8A"/>
    </linearGradient>
    <linearGradient id="panel" x1="300" y1="120" x2="1180" y2="760" gradientUnits="userSpaceOnUse">
      <stop stop-color="#FFFFFF" stop-opacity="0.18"/>
      <stop offset="1" stop-color="#FFFFFF" stop-opacity="0.03"/>
    </linearGradient>
  </defs>
  <rect width="1600" height="900" fill="url(#bg)"/>
  <circle cx="1370" cy="130" r="180" fill="#3C92C9" fill-opacity="0.25"/>
  <circle cx="190" cy="760" r="220" fill="#C0392B" fill-opacity="0.18"/>
  <rect x="180" y="140" width="1240" height="620" rx="40" fill="url(#panel)" stroke="#FFFFFF" stroke-opacity="0.2"/>
  <rect x="280" y="250" width="620" height="360" rx="22" fill="#0A2E45" fill-opacity="0.65" stroke="#FFFFFF" stroke-opacity="0.18"/>
  <rect x="950" y="250" width="370" height="360" rx="22" fill="#FFFFFF" fill-opacity="0.08" stroke="#FFFFFF" stroke-opacity="0.25"/>
  <rect x="1010" y="300" width="250" height="80" rx="16" fill="#0E5A8A"/>
  <rect x="1010" y="410" width="250" height="80" rx="16" fill="#3C92C9"/>
  <rect x="1010" y="520" width="250" height="40" rx="12" fill="#C0392B"/>
  <circle cx="590" cy="430" r="120" fill="#3C92C9" fill-opacity="0.5"/>
  <circle cx="590" cy="430" r="65" fill="#FFFFFF" fill-opacity="0.75"/>
  <path d="M590 350V510M510 430H670M535 375L645 485M645 375L535 485" stroke="#0A2E45" stroke-opacity="0.65" stroke-width="16" stroke-linecap="round"/>
  <text x="280" y="170" fill="#FFFFFF" fill-opacity="0.9" font-family="Arial, sans-serif" font-size="30" font-weight="700">Right Coast Air &amp; Mechanical</text>
  <text x="280" y="210" fill="#DCEAF6" font-family="Arial, sans-serif" font-size="24">Central Florida HVAC Experts</text>
</svg>
